<svg width="1600" height="1000" viewBox="0 0 1600 1000" fill="none" xmlns="http://www.w3.org/2000/svg">
  <rect width="1600" height="1000" fill="#F8FAFC"/>
  <path d="M0 0H1600V1000H0V0Z" fill="url(#paint0_linear)"/>
  <path d="M1072 158C1244 203 1393 339 1454 511C1515 683 1488 891 1317 968C1147 1045 832 990 626 921C420 852 323 769 238 629C154 489 82 292 181 188C280 83 550 71 735 88C920 105 901 113 1072 158Z" fill="#DBEAFE"/>
  <path d="M256 744C418 673 571 645 745 680C919 716 1065 813 1239 773C1413 734 1513 560 1600 477V1000H0V854C74 820 139 795 256 744Z" fill="#EFF6FF"/>
  <g opacity="0.95">
    <path d="M462 594C496 492 570 421 668 394L806 356C873 337 945 352 999 397L1092 474L1192 493C1243 503 1280 548 1280 600V657H310V636C310 613 326 594 349 594H462Z" fill="#111827"/>
    <path d="M535 570C565 502 617 457 686 438L811 404C859 391 910 401 949 432L1027 496H534L535 570Z" fill="#FFFFFF"/>
    <path d="M724 429L702 496H534C559 465 608 444 686 438L724 429Z" fill="#BFDBFE"/>
    <path d="M766 418L746 496H997L949 432C910 401 859 391 811 404L766 418Z" fill="#BFDBFE"/>
    <path d="M335 637H1271V687C1271 702 1259 714 1244 714H362C347 714 335 702 335 687V637Z" fill="#111827"/>
    <path d="M481 750C542 750 592 700 592 639C592 578 542 528 481 528C420 528 370 578 370 639C370 700 420 750 481 750Z" fill="#111827"/>
    <path d="M481 706C518 706 548 676 548 639C548 602 518 572 481 572C444 572 414 602 414 639C414 676 444 706 481 706Z" fill="#FFFFFF"/>
    <path d="M481 680C504 680 522 662 522 639C522 616 504 598 481 598C458 598 440 616 440 639C440 662 458 680 481 680Z" fill="#3B82F6"/>
    <path d="M1092 750C1153 750 1203 700 1203 639C1203 578 1153 528 1092 528C1031 528 981 578 981 639C981 700 1031 750 1092 750Z" fill="#111827"/>
    <path d="M1092 706C1129 706 1159 676 1159 639C1159 602 1129 572 1092 572C1055 572 1025 602 1025 639C1025 676 1055 706 1092 706Z" fill="#FFFFFF"/>
    <path d="M1092 680C1115 680 1133 662 1133 639C1133 616 1115 598 1092 598C1069 598 1051 616 1051 639C1051 662 1069 680 1092 680Z" fill="#3B82F6"/>
    <path d="M1157 532H1230C1247 532 1260 545 1260 562V573H1190C1172 573 1157 558 1157 540V532Z" fill="#3B82F6"/>
    <path d="M333 574H423C436 574 447 585 447 598V606H333V574Z" fill="#3B82F6"/>
  </g>
  <path d="M213 819H1387" stroke="#BFDBFE" stroke-width="4" stroke-linecap="round"/>
  <path d="M362 860H575" stroke="#3B82F6" stroke-width="8" stroke-linecap="round"/>
  <path d="M671 860H1238" stroke="#BFDBFE" stroke-width="8" stroke-linecap="round"/>
  <defs>
    <linearGradient id="paint0_linear" x1="247" y1="113" x2="1322" y2="955" gradientUnits="userSpaceOnUse">
      <stop stop-color="#DBEAFE"/>
      <stop offset="0.45" stop-color="#F8FAFC"/>
      <stop offset="1" stop-color="#FFFFFF"/>
    </linearGradient>
  </defs>
</svg>
